<svg viewBox="0 0 190.89 114.02" xmlns="http://www.w3.org/2000/svg"><g fill="#26e0e5"><path d="m307.13 54.61-9.41-6.1c-1.25 2.72-1.89 5.69-1.89 8.65 0 2.87.61 5.74 1.87 8.37l15.71-10.21 17.88-11.59c.39-.25.8-.32 1.25-.21.44.1.79.36 1.02.75l.21.35c2.25 3.82 3.41 8.19 3.41 12.55 0 4.28-1.12 8.55-3.45 12.29l-.21.34c-.24.38-.58.62-1.02.72s-.85.02-1.23-.22l-13.09-8.51 3.68-2.39 9.44 6.13c1.25-2.63 1.87-5.5 1.87-8.37 0-2.96-.64-5.92-1.89-8.65l-11.31 7.33-3.73 2.42-18.51 12.03c-.38.25-.79.32-1.23.22s-.78-.34-1.02-.72l-.21-.34c-2.32-3.74-3.45-8.01-3.45-12.29 0-4.36 1.17-8.73 3.41-12.55l.21-.35c.23-.39.57-.65 1.02-.75.45-.11.87-.03 1.25.21l13.1 8.49-3.68 2.39z"/><path d="m64.42 46.92-39.59-25.66c-5.26 11.46-7.96 23.94-7.96 36.39.01 12.08 2.58 24.14 7.86 35.21l66.12-42.96 75.27-48.8c1.62-1.05 3.39-1.35 5.25-.9 1.86.43 3.31 1.51 4.29 3.15l.88 1.48c9.47 16.06 14.37 34.45 14.36 52.81 0 18-4.73 35.99-14.52 51.72l-.89 1.43c-1 1.61-2.44 2.62-4.29 3.04-1.85.4-3.59.1-5.16-.93l-55.09-35.8 15.5-10.05 39.72 25.8c5.28-11.07 7.86-23.14 7.86-35.21.02-12.45-2.7-24.93-7.96-36.39l-47.59 30.85-15.69 10.17-77.92 50.64c-1.59 1.03-3.33 1.33-5.18.93-1.85-.42-3.28-1.44-4.29-3.04l-.89-1.43c-9.76-15.74-14.49-33.72-14.51-51.72-.01-18.36 4.91-36.75 14.37-52.82l.88-1.48c.97-1.65 2.41-2.73 4.27-3.15 1.88-.45 3.64-.14 5.25.9l55.15 35.74-15.51 10.07z"/></g></svg>